<svg width="16" height="16" viewBox="0 0 16 16" fill="none" xmlns="http://www.w3.org/2000/svg">
<path d="M10.6666 14V12.6667C10.6666 11.9594 10.3857 11.2811 9.8856 10.781C9.3855 10.281 8.70722 10 7.99998 10H3.99998C3.29274 10 2.61446 10.281 2.11436 10.781C1.61426 11.2811 1.33331 11.9594 1.33331 12.6667V14" stroke="#013AF5" stroke-width="1.33333" stroke-linecap="round" stroke-linejoin="round"/>
<path d="M10.6667 2.08533C11.2385 2.23357 11.7449 2.5675 12.1065 3.0347C12.468 3.5019 12.6642 4.07592 12.6642 4.66666C12.6642 5.2574 12.468 5.83142 12.1065 6.29862C11.7449 6.76582 11.2385 7.09975 10.6667 7.24799" stroke="#013AF5" stroke-width="1.33333" stroke-linecap="round" stroke-linejoin="round"/>
<path d="M14.6667 14V12.6667C14.6662 12.0758 14.4696 11.5019 14.1076 11.0349C13.7456 10.5679 13.2388 10.2344 12.6667 10.0867" stroke="#013AF5" stroke-width="1.33333" stroke-linecap="round" stroke-linejoin="round"/>
<path d="M5.99998 7.33333C7.47274 7.33333 8.66665 6.13943 8.66665 4.66667C8.66665 3.19391 7.47274 2 5.99998 2C4.52722 2 3.33331 3.19391 3.33331 4.66667C3.33331 6.13943 4.52722 7.33333 5.99998 7.33333Z" stroke="#013AF5" stroke-width="1.33333" stroke-linecap="round" stroke-linejoin="round"/>
</svg>
